<svg xmlns="http://www.w3.org/2000/svg" width="720" height="1400" viewBox="0 0 720 1400">
  <rect width="720" height="1400" fill="#121814"/>
  <rect x="40" y="30" width="640" height="1340" rx="24" fill="#121814" stroke="#2A362D" stroke-width="3"/>
  <rect x="70" y="70" width="580" height="84" rx="14" fill="#161E18" stroke="#2A362D" stroke-width="2"/>
  <text x="98" y="123" font-size="34" fill="#F3F5EF" font-family="Inter, sans-serif" font-weight="700">특급전사</text>

  <rect x="70" y="184" width="580" height="220" rx="12" fill="#1B241C" stroke="#334235" stroke-width="2"/>
  <text x="96" y="238" font-size="28" fill="#F3F5EF" font-family="Inter, sans-serif" font-weight="700">오늘 상태</text>
  <text x="96" y="274" font-size="22" fill="#A9B5A3" font-family="Inter, sans-serif">이번 주 목표 진행 중</text>
  <text x="96" y="326" font-size="44" fill="#F3F5EF" font-family="Inter, sans-serif" font-weight="800">2/3</text>
  <rect x="96" y="344" width="528" height="14" rx="7" fill="#2C382F"/>
  <rect x="96" y="344" width="352" height="14" rx="7" fill="#5E8F47"/>
  <text x="96" y="386" font-size="22" fill="#D6DFD1" font-family="Inter, sans-serif">오늘 운동 1회 남음</text>

  <rect x="70" y="432" width="580" height="190" rx="12" fill="#1B241C" stroke="#334235" stroke-width="2"/>
  <text x="96" y="484" font-size="32" fill="#F3F5EF" font-family="Inter, sans-serif" font-weight="700">운동</text>
  <text x="96" y="524" font-size="24" fill="#A9B5A3" font-family="Inter, sans-serif">오늘 루틴: 상체</text>
  <text x="96" y="562" font-size="24" fill="#A9B5A3" font-family="Inter, sans-serif">진행률: 40%</text>
  <rect x="516" y="548" width="110" height="44" rx="9" fill="#5E8F47"/>
  <text x="544" y="578" font-size="21" fill="#F3F5EF" font-family="Inter, sans-serif" font-weight="700">시작하기</text>

  <rect x="70" y="648" width="580" height="190" rx="12" fill="#1B241C" stroke="#334235" stroke-width="2"/>
  <text x="96" y="700" font-size="32" fill="#F3F5EF" font-family="Inter, sans-serif" font-weight="700">식단</text>
  <text x="96" y="740" font-size="24" fill="#A9B5A3" font-family="Inter, sans-serif">단백질 부족 32g</text>
  <text x="96" y="778" font-size="24" fill="#A9B5A3" font-family="Inter, sans-serif">영양 균형 확인 필요</text>
  <rect x="530" y="764" width="96" height="44" rx="9" fill="#2A342C" stroke="#3B4A3D"/>
  <text x="548" y="794" font-size="21" fill="#D7DFD3" font-family="Inter, sans-serif" font-weight="700">식단 보기</text>

  <rect x="70" y="864" width="580" height="190" rx="12" fill="#1B241C" stroke="#334235" stroke-width="2"/>
  <text x="96" y="916" font-size="32" fill="#F3F5EF" font-family="Inter, sans-serif" font-weight="700">추천 보충</text>
  <text x="96" y="956" font-size="24" fill="#A9B5A3" font-family="Inter, sans-serif">단백질 보충 필요</text>
  <text x="96" y="994" font-size="24" fill="#A9B5A3" font-family="Inter, sans-serif">추천: 프로틴바</text>
  <rect x="530" y="980" width="96" height="44" rx="9" fill="#2A342C" stroke="#3B4A3D"/>
  <text x="549" y="1010" font-size="21" fill="#D7DFD3" font-family="Inter, sans-serif" font-weight="700">확인하기</text>
</svg>
